<svg xmlns="http://www.w3.org/2000/svg" width="18.106" height="18.137" viewBox="0 0 18.106 18.137"><path d="M13.078,4.564A3.83,3.83,0,0,1,16.1,7.59M13.078,1.5a6.894,6.894,0,0,1,6.09,6.082M18.4,13.694v2.3a1.532,1.532,0,0,1-1.67,1.532,15.159,15.159,0,0,1-6.61-2.352,14.937,14.937,0,0,1-4.6-4.6A15.159,15.159,0,0,1,3.174,3.936,1.532,1.532,0,0,1,4.7,2.266H7A1.532,1.532,0,0,1,8.528,3.583a9.835,9.835,0,0,0,.536,2.152A1.532,1.532,0,0,1,8.72,7.352l-.973.973a12.256,12.256,0,0,0,4.6,4.6l.973-.973a1.532,1.532,0,0,1,1.616-.345,9.835,9.835,0,0,0,2.152.536A1.532,1.532,0,0,1,18.4,13.694Z" transform="translate(-2.167 -0.396)" fill="#b4c2ff" stroke="#292f99" stroke-linecap="round" stroke-linejoin="round" stroke-width="2"/></svg>